<?xml version="1.0" encoding="UTF-8" standalone="no"?>
<svg
   width="350"
   height="350"
   viewBox="0 0 353 359"
   version="1.1"
   id="svg231"
   sodipodi:docname="icon"
   inkscape:version="1.2.2 (732a01da63, 2022-12-09, custom)"
   xmlns:inkscape="http://www.inkscape.org/namespaces/inkscape"
   xmlns:sodipodi="http://sodipodi.sourceforge.net/DTD/sodipodi-0.dtd"
   xmlns="http://www.w3.org/2000/svg"
   xmlns:svg="http://www.w3.org/2000/svg">
  <defs
     id="defs235" />
  <sodipodi:namedview
     id="namedview233"
     pagecolor="#ffffff"
     bordercolor="#000000"
     borderopacity="0.25"
     inkscape:showpageshadow="2"
     inkscape:pageopacity="0.0"
     inkscape:pagecheckerboard="0"
     inkscape:deskcolor="#d1d1d1"
     showgrid="false"
     inkscape:zoom="0.93755662"
     inkscape:cx="377.04389"
     inkscape:cy="227.18628"
     inkscape:window-width="1366"
     inkscape:window-height="649"
     inkscape:window-x="0"
     inkscape:window-y="0"
     inkscape:window-maximized="1"
     inkscape:current-layer="g3309" />
  <g
     id="g3309"
     transform="translate(-1.051194,-1.1339519)">
    <path
       d="M 91.607924,3.1280477 C 69.130387,8.7064476 56.894107,27.756939 58.798029,54.209814 c 0.649994,9.025748 0.649994,9.025748 -4.25414,8.207925 -56.7020657,-9.451551 -80.115187,69.456711 -25.888216,87.251291 6.775296,2.22419 111.564677,3.59883 116.990847,1.53534 4.94512,-1.88028 3.81706,-114.15658 -1.24978,-124.466896 C 134.95593,7.5262834 113.16112,-2.2210749 91.607924,3.1280477 M 194.48113,3.5538485 c -16.17723,5.3829 -26.55255,15.5243285 -30.19662,29.5153655 -3.96649,15.224425 -1.97249,117.714476 2.30314,118.420726 6.30853,1.04301 100.50863,0.69909 108.07005,-0.39407 56.12068,-8.11273 47.9031,-88.184776 -9.07739,-88.44476 C 251.20773,62.5856 251.20773,62.5856 252.0727,55.932465 256.73423,20.107878 226.73211,-7.1781741 194.48113,3.5538485 M 96.400482,35.491979 C 88.323145,40.417348 87.699764,48.472762 94.662387,57.957066 115.44583,86.2677 83.533659,119.53953 55.857185,98.415306 47.487095,92.026247 43.066108,91.179763 37.091274,94.822612 27.594182,100.61289 27.62694,112.59161 37.155784,118.4218 82.470136,146.14798 140.00642,88.642359 115.11419,40.507421 111.68814,33.882943 102.90247,31.528756 96.400495,35.491979 m 103.549795,0.02662 c -6.20718,3.97653 -6.4928,6.069709 -6.4928,47.558675 0,37.339456 0,37.339456 37.97506,37.339456 45.32663,0 49.03212,-1.00309 49.03212,-13.2725 0,-13.884586 -11.56579,-17.88875 -25.46544,-8.815918 C 224.70229,118.1045 195.58354,87.719108 216.05072,57.684798 226.28581,42.664062 214.38118,26.274825 199.95029,35.518591 M 31.726513,166.87609 c -39.4818104,8.77907 -44.943813,68.13939 -7.832694,85.12843 10.268896,4.70121 25.424522,5.50368 34.946179,1.84958 1.605025,-0.61619 1.758567,-0.31424 1.160776,2.2723 -5.465073,23.61453 3.055488,44.00999 22.774385,54.51887 24.988461,13.31856 58.299951,-1.49542 64.579781,-28.72005 1.55491,-6.73708 1.40133,-113.67756 -0.16481,-115.24361 -1.76162,-1.76154 -107.467145,-1.58345 -115.463617,0.19448 m 131.470927,-0.0922 c -1.28874,3.36035 0.18117,148.56252 1.55178,153.22688 19.14362,65.14752 116.73909,46.35496 116.73909,-22.47943 0,-13.16706 0,-13.16706 14.07469,-13.0125 69.3744,0.76049 85.54341,-94.9413 19.70456,-116.63053 -7.66583,-2.52615 -151.1243,-3.56711 -152.07012,-1.10442 m 31.4966,30.64947 c -2.87021,3.46884 -1.21607,108.81974 1.80052,114.7267 8.78363,17.19478 30.16386,21.33303 44.59373,8.63168 12.4277,-10.93878 12.874,-27.501 1.11983,-41.5688 -20.48454,-24.51733 10.90766,-53.91191 34.99327,-32.76516 28.48616,25.00965 65.6106,-15.22443 38.54725,-41.77762 -3.32057,-3.25901 -6.91553,-5.71965 -9.33739,-6.39418 -7.18169,-1.99901 -110.11835,-2.78408 -111.71721,-0.85262 m -159.519996,4.22116 c -6.109952,6.11065 -5.981999,12.64608 0.37976,19.31457 5.207125,5.45762 10.408106,4.74522 20.261413,-2.7759 28.677567,-21.88882 58.933563,11.92755 37.955603,42.42246 -9.338428,13.57547 0.728813,28.16324 15.24879,22.0966 7.60644,-3.17815 7.65869,-3.49443 7.66278,-46.88926 0.004,-36.97815 -55.450208,-60.22421 -81.508346,-34.16847"
       stroke="none"
       fill="#cd222d"
       fill-rule="evenodd"
       id="path229"
       style="fill:#cd222d;fill-opacity:1;stroke-width:1.02361" />
  </g>
</svg>
