<?xml version="1.0" encoding="UTF-8" standalone="no"?>
<!-- Created with Inkscape (http://www.inkscape.org/) -->

<svg
   width="1953.4535"
   height="370.01401"
   viewBox="0 0 516.85122 97.899539"
   version="1.1"
   id="svg231"
   inkscape:version="1.2.2 (732a01da63, 2022-12-09, custom)"
   sodipodi:docname="logo-h-blanco"
   xmlns:inkscape="http://www.inkscape.org/namespaces/inkscape"
   xmlns:sodipodi="http://sodipodi.sourceforge.net/DTD/sodipodi-0.dtd"
   xmlns="http://www.w3.org/2000/svg"
   xmlns:svg="http://www.w3.org/2000/svg">
  <sodipodi:namedview
     id="namedview233"
     pagecolor="#ffffff"
     bordercolor="#000000"
     borderopacity="0.25"
     inkscape:showpageshadow="2"
     inkscape:pageopacity="0.0"
     inkscape:pagecheckerboard="0"
     inkscape:deskcolor="#d1d1d1"
     inkscape:document-units="mm"
     showgrid="false"
     inkscape:zoom="0.21202301"
     inkscape:cx="1153.1767"
     inkscape:cy="240.53993"
     inkscape:window-width="1366"
     inkscape:window-height="649"
     inkscape:window-x="0"
     inkscape:window-y="0"
     inkscape:window-maximized="1"
     inkscape:current-layer="layer1" />
  <defs
     id="defs228" />
  <g
     inkscape:label="Capa 1"
     inkscape:groupmode="layer"
     id="layer1"
     transform="translate(-3.7300619,-3.2305075)">
    <g
       id="g369"
       style="fill:#ffffff">
      <path
         d="m 219.30177,18.549589 c -4.53664,5.112066 -8.24792,9.608004 -8.24792,9.990324 0,0.821868 1.80952,1.425797 4.30513,1.437364 1.13849,0.0044 5.25183,-1.878125 11.31613,-5.182073 10.2727,-5.596635 10.35544,-5.68247 10.00037,-10.372014 -0.23596,-3.107295 -2.80708,-5.1291114 -6.55247,-5.1528524 l -2.57334,-0.015228 -8.2479,9.2950804 m -78.42494,-4.136382 c -10.10215,2.507038 -20.44251,9.614698 -25.73624,17.692176 -4.9303,7.522268 -7.50477,15.761109 -7.52547,24.08211 -0.0415,17.04322 12.54298,29.764584 30.51727,30.848848 14.86802,0.896765 27.52675,-6.987127 33.24715,-20.706333 1.5713,-3.76721 1.41808,-4.923307 -0.76608,-5.782937 -3.10736,-1.223692 -3.87287,-0.888222 -6.25107,2.736539 -1.2302,1.874475 -4.04287,5.662991 -6.25051,8.418425 -5.85295,7.304311 -9.84213,9.011964 -15.04252,6.441048 -5.98208,-2.958148 -6.95003,-9.173957 -3.80241,-24.415122 1.55284,-7.519224 9.19292,-26.538601 11.9195,-29.672051 3.8958,-4.478283 10.63837,-4.389405 13.94258,0.183932 1.38228,1.913434 3.03803,6.615761 4.01435,11.402119 l 0.71967,3.526122 3.63968,-0.177845 3.64027,-0.177844 2.66952,-11.871517 c 1.46842,-6.529296 2.68184,-12.110127 2.69638,-12.401135 0.014,-0.291617 -1.45108,-0.413367 -3.25722,-0.271527 -2.53365,0.199802 -3.69394,0.63376 -5.07567,1.90004 -2.28481,2.093041 -3.25724,2.062016 -9.00784,-0.28916 -4.37893,-1.790465 -5.30607,-1.943262 -12.82814,-2.114346 -5.42574,-0.123498 -9.21809,0.09132 -11.4632,0.648371 m 187.56071,-0.03327 c -4.7368,1.844034 -6.65704,4.624407 -6.66206,9.648158 -0.005,3.037289 0.21976,3.756905 1.75638,5.662404 2.26246,2.804744 4.23859,3.890202 8.41846,4.623212 3.7577,0.658719 7.11724,-0.180888 11.41676,-2.854638 6.06151,-3.769059 5.20933,-12.654423 -1.56681,-16.330321 -2.38546,-1.294305 -3.67941,-1.576161 -7.13736,-1.554246 -2.3234,0.01305 -5.12434,0.376843 -6.22537,0.805431 m 41.62312,4.918437 c -1.76478,0.835889 -2.46597,2.298212 -4.6876,9.773585 -1.74296,5.865751 -3.50215,7.578903 -7.81399,7.610559 -3.32545,0.0237 -3.73308,0.392671 -4.20281,3.804345 l -0.39756,2.891795 h 3.97745 c 2.81156,0 3.97688,0.223415 3.9741,0.760991 -0.002,0.418848 -1.13681,5.274603 -2.5219,10.790884 -3.44792,13.735033 -3.88129,16.729687 -3.0565,21.12033 0.5592,2.979436 1.08988,3.998562 3.29525,6.330843 3.31651,3.506662 6.42107,4.553181 13.19106,4.446018 8.10533,-0.127834 13.85425,-3.280791 19.00261,-10.420716 2.91725,-4.045455 3.23878,-6.201805 1.14745,-7.693351 -0.7577,-0.540619 -1.6574,-0.983208 -1.99794,-0.983208 -0.34113,0 -1.89676,1.520764 -3.45687,3.378802 -3.04026,3.622326 -5.02814,4.246345 -5.3631,1.684563 -0.23317,-1.783182 5.28314,-25.030013 6.36628,-26.82961 1.17706,-1.956068 3.0067,-2.585546 7.51202,-2.585546 3.34109,0 3.96068,-0.177844 4.71668,-1.353354 0.47866,-0.743946 0.87063,-2.25071 0.87063,-3.348365 v -1.994898 h -5.52916 -5.52974 l 1.92304,-8.308241 c 1.05796,-4.569617 1.79272,-8.678972 1.6328,-9.131911 -0.41883,-1.188361 -20.52863,-1.13905 -23.0522,0.05653 M 197.63358,36.004285 c -1.6915,0.595407 -4.20781,1.716805 -5.59179,2.491798 -3.41992,1.915868 -9.58042,8.752045 -11.38938,12.638593 -6.23652,13.400174 -2.69468,29.328691 7.62778,34.30498 2.27977,1.098874 3.92377,1.407537 7.474,1.403275 3.96683,-0.0044 5.00746,-0.250829 8.10812,-1.915869 1.95599,-1.050782 4.67585,-3.154779 6.04306,-4.675543 l 2.48555,-2.764565 1.19162,2.580089 c 1.70101,3.68503 4.80613,5.857207 9.38023,6.562824 10.60206,1.634601 20.39275,-3.854286 25.55621,-14.328007 l 1.39795,-2.835159 -1.32023,-1.172534 c -1.93084,-1.71437 -2.58396,-1.494607 -5.56497,1.87204 -1.48239,1.67417 -3.14873,3.043985 -3.70342,3.043985 -0.88242,0 -0.97969,-0.438328 -0.77505,-3.500575 0.12912,-1.925631 0.66264,-4.433236 1.18604,-5.572896 0.52283,-1.13968 0.95116,-2.437008 0.95116,-2.883272 0,-0.44624 1.25815,-5.697104 2.79589,-11.66817 1.53773,-5.971045 2.7959,-11.453865 2.7959,-12.183809 0,-1.324113 -0.0314,-1.327788 -12.35732,-1.327788 h -12.3573 l -1.58025,1.842232 -1.58025,1.841601 -2.67902,-1.849514 c -1.4729,-1.017301 -3.56757,-2.118608 -4.65462,-2.44736 -3.10569,-0.939379 -10.02163,-0.659936 -13.43991,0.543644 m 94.22184,0.0065 c -2.56161,1.291241 -4.31129,3.229635 -7.19499,7.969728 l -2.0315,3.339841 V 42.001953 36.68293 h -14.75284 -14.75341 l -0.33719,1.36977 c -0.7778,3.161473 -0.44621,4.035108 1.78102,4.687718 1.17315,0.343969 2.71985,1.305264 3.43613,2.135651 1.20393,1.395361 1.27831,1.869019 0.97803,6.246857 -0.19806,2.889338 -1.54894,9.604958 -3.46355,17.217323 -1.7262,6.864179 -3.28519,13.507922 -3.46469,14.763268 l -0.32545,2.282994 h 12.28855 c 10.99515,0 12.38193,-0.111969 13.17036,-1.065392 0.4848,-0.585667 1.80111,-4.489871 2.92563,-8.67532 1.77874,-6.621871 3.04416,-10.53277 7.41918,-22.926602 l 0.89358,-2.531998 1.50029,2.57583 c 1.98732,3.41226 4.82013,4.884346 8.48723,4.411927 5.86414,-0.756119 8.82108,-4.715132 8.82108,-11.809422 0,-4.963485 -1.30011,-7.700635 -4.48462,-9.442377 -2.61305,-1.429472 -7.96834,-1.386251 -10.89284,0.0876 M 416.0683,35.822042 c -9.60669,2.531997 -17.60578,11.402729 -19.92135,22.092559 -0.4356,2.012075 -0.605,5.431664 -0.4395,8.880495 0.43783,9.110626 3.6643,15.140111 9.83932,18.386223 2.6768,1.406906 3.92548,1.674782 7.93028,1.698545 4.10327,0.02478 5.18811,-0.203935 7.93591,-1.672997 1.75079,-0.936313 4.40802,-2.900906 5.90495,-4.366271 l 2.72208,-2.664078 1.92357,2.80594 c 6.04752,8.822665 20.30606,7.895457 30.02348,-1.952418 l 3.16777,-3.210175 1.70047,3.092076 c 3.94669,7.173408 12.515,8.826316 33.29469,6.422787 6.17948,-0.714725 10.88051,-2.850399 14.35639,-6.523253 2.94465,-3.110927 4.09655,-5.970458 4.09655,-10.166864 0,-6.607239 -2.77354,-10.077987 -11.92172,-14.918503 -5.76739,-3.051898 -8.32284,-5.234426 -9.00225,-7.689088 -0.53513,-1.935372 2.45313,-4.483784 5.25742,-4.483784 h 2.14165 l -0.58098,2.061385 c -1.304,4.625014 0.89804,8.73013 5.42125,10.109032 3.48761,1.063565 6.29524,0.352492 8.45535,-2.141741 3.79628,-4.3821 2.54877,-11.081893 -2.60802,-14.004104 -5.6656,-3.210155 -22.92582,-3.578497 -31.11332,-0.664198 -8.44864,3.007439 -11.87699,7.242826 -11.89319,14.694478 -0.014,6.515948 0.68835,7.520464 10.05909,14.388883 4.40914,3.23209 8.34519,6.559148 8.74668,7.393798 0.63915,1.328397 0.58883,1.714372 -0.40539,3.090251 -1.24978,1.730197 -5.88706,3.534056 -7.73292,3.008675 -1.06299,-0.302573 -1.12116,-0.64289 -0.80465,-4.715132 0.39085,-5.038385 -0.10395,-6.515948 -2.778,-8.291174 -2.48948,-1.652277 -8.49787,-1.63034 -11.8725,0.04326 -1.37952,0.684266 -3.04197,1.081806 -3.74428,0.895528 -1.03114,-0.273356 -1.69768,0.281875 -3.63635,3.031177 -2.34465,3.325862 -4.17427,4.280438 -4.79944,2.50641 -0.16654,-0.473027 1.69375,-8.711848 4.13402,-18.308283 2.44026,-9.597047 4.43709,-17.702548 4.43709,-18.013037 0,-0.329945 -5.30104,-0.564339 -12.77446,-0.564339 -11.66562,0 -12.855,0.09696 -13.69991,1.113482 -0.50885,0.612456 -0.92547,1.573728 -0.92547,2.136872 0,0.81578 -0.61566,0.578363 -3.02907,-1.165836 -1.66636,-1.204797 -3.99365,-2.433968 -5.1724,-2.731671 -3.10008,-0.782907 -8.90663,-0.602082 -12.69284,0.395105 m -102.52673,1.308918 c -2.33237,0.178277 -3.1454,0.538162 -4.05408,1.795943 -1.6848,2.332303 -1.42478,2.924646 1.66243,3.786083 1.53943,0.429195 3.3361,1.254737 3.99368,1.834297 l 1.19498,1.053215 -2.68016,10.913266 c -3.23151,13.159714 -3.7465,18.814814 -2.0852,22.903468 1.44662,3.560255 4.06919,5.687973 8.55267,6.940253 9.37579,2.618463 20.22945,-1.678431 26.07399,-10.322098 2.77019,-4.09659 2.96086,-5.337306 1.03394,-6.711966 -2.0712,-1.477544 -2.58172,-1.257782 -5.50681,2.37309 -3.00053,3.725206 -4.85758,4.380273 -4.85758,1.714348 0,-0.894308 1.88722,-9.075295 4.19383,-18.179814 2.30663,-9.103928 4.19387,-17.001822 4.19387,-17.550334 0,-0.901635 -1.38956,-0.986861 -14.3989,-0.88522 -7.91966,0.06218 -15.71185,0.213064 -17.31666,0.335469 M 212.23994,47.269818 c -1.63282,0.985035 -2.33234,2.742019 -5.16796,12.972826 -2.13158,7.69272 -2.18918,8.115848 -1.34201,9.898988 0.87342,1.838557 0.90699,1.850731 2.57893,0.909549 1.90176,-1.070871 2.55826,-2.517365 6.02683,-13.278443 l 2.32677,-7.219084 -1.1726,-2.065016 c -1.3124,-2.311606 -1.39069,-2.341434 -3.24996,-1.21882 m 217.19221,0.600278 c -0.86058,0.936923 -2.23002,4.494741 -3.88853,10.102945 -2.65275,8.969395 -2.94967,10.873089 -1.99795,12.809656 0.48034,0.976514 0.81079,1.050173 2.25405,0.502269 2.08629,-0.791451 2.75621,-2.174027 6.1247,-12.641031 l 2.65945,-8.26317 -1.18715,-1.970679 c -1.41919,-2.355415 -2.19923,-2.461947 -3.96457,-0.53999"
         stroke="none"
         fill="#cd222d"
         fill-rule="evenodd"
         id="path171"
         style="stroke-width:0.58346;fill:#ffffff"
         sodipodi:nodetypes="cscccccccccccccccsccccccccccccccccccccccccccscccccccscscscscccccccccccccccccccssccssssccccccccccccccccccccsccccccscccccccccccsccscsccsccccccccccscccccccsscscsccccsccsccscscsccccsccccccccccccc" />
      <path
         d="m 28.878501,3.6284171 c -6.07545,1.526092 -9.38279,6.7377699 -8.86818,13.9745309 l 0.17569,2.469191 -1.32554,-0.223735 c -2.27534,-0.383903 -5.6336,-0.190411 -7.3603,0.423667 -2.9354999,1.044464 -5.6407999,3.721707 -6.9358999,6.864618 -2.10049,5.09659 -0.0802,12.14126 4.33214,15.10524 2.9526399,1.983361 2.8256399,1.969641 19.1528999,2.086967 9.89822,0.07141 14.91512,0.0092 15.43527,-0.190971 l 0.77081,-0.296539 -0.08,-15.900208 -0.0799,-15.900209 -0.94871,-1.953679 C 40.595011,4.8316501 34.704101,2.1650481 28.878501,3.6284171 m 27.80555,0.116487 c -3.18311,1.072185 -5.33451,2.645601 -6.81056,4.980943 -1.74026,2.7531279 -1.76627,3.0468659 -1.76627,20.0111399 v 15.305452 l 1.03752,0.173611 c 1.70513,0.285337 27.16642,0.191251 29.2102,-0.107807 3.87977,-0.567595 7.39628,-3.232237 9.11663,-6.908301 0.8361,-1.786229 0.89143,-2.096208 0.89143,-4.984863 0,-2.265339 -0.13418,-3.469972 -0.50769,-4.553918 -0.76997,-2.235376 -2.47953,-4.623641 -4.12739,-5.765551 -2.46598,-1.708664 -3.47057,-1.963201 -7.8265,-1.983362 l -3.88476,-0.01792 0.23379,-1.820111 c 0.12893,-1.00106 0.15853,-2.859254 0.0664,-4.129131 -0.1411,-1.940238 -0.32315,-2.588478 -1.13989,-4.0602469 -1.37755,-2.481232 -3.2044,-4.2627 -5.60841,-5.469014 -1.86394,-0.935537 -2.27839,-1.032702 -4.70342,-1.104667 -2.00256,-0.05936 -3.03509,0.04788 -4.18108,0.433747 m -26.51017,8.7373709 c -0.56248,0.347222 -1.13298,1.058744 -1.47329,1.837192 -0.66235,1.515453 -0.49219,2.246577 1.00349,4.308622 1.40771,1.940799 1.8028,3.09447 1.8028,5.262641 0,6.485476 -7.08142,9.830559 -12.29144,5.805594 -0.65792,-0.50823 -1.45252,-1.063224 -1.766,-1.232915 -2.22416,-1.204633 -5.51988,1.130429 -5.21084,3.692305 0.16047,1.330361 0.7852,2.30958 1.92204,3.013823 0.84136,0.521112 1.38032,0.544074 11.12111,0.476589 l 10.23688,-0.07084 0.0725,-10.437916 c 0.0802,-11.550984 0.0747,-11.594106 -1.67692,-12.674693 -1.13961,-0.703402 -2.58052,-0.695841 -3.74032,0.0196 m 27.98843,0.0073 c -1.67773,1.087867 -1.75493,1.660502 -1.75493,13.010713 v 10.215023 h 10.26427 c 11.38808,0 11.60721,-0.03136 12.69508,-1.81283 1.03144,-1.689344 0.45375,-4.171695 -1.21846,-5.236039 -1.31281,-0.835572 -2.74681,-0.553034 -5.10681,1.006101 -2.49393,1.64762 -4.33544,2.102088 -6.58451,1.624658 -2.96455,-0.629197 -4.71532,-2.439508 -5.50965,-5.697226 -0.63026,-2.585678 -0.23296,-4.373586 1.56679,-7.04635 1.52612,-2.266738 1.66336,-3.083268 0.78409,-4.666765 -1.07651,-1.938279 -3.34799,-2.556276 -5.13585,-1.397286 m -45.46916,35.935688 c -4.1395699,0.931617 -7.1763299,3.951601 -8.4440399,8.397714 -0.34639,1.214433 -0.4424,2.390504 -0.36576,4.483632 0.13087,3.578059 0.90693,5.368207 3.44567,7.947444 2.8558099,2.900977 6.2458799,4.055208 10.1743499,3.464091 1.11001,-0.16717 2.24325,-0.391463 2.51827,-0.49815 0.43382,-0.168571 0.47532,-0.08597 0.31374,0.621638 -0.45928,2.008562 -0.50465,5.59754 -0.0908,7.186356 1.55961,5.98677 7.74157,9.99717 13.73816,8.91238 5.02243,-0.90837 8.91521,-4.44051 9.96353,-9.04091 0.42026,-1.843068 0.37875,-31.098971 -0.0446,-31.527397 -0.47616,-0.48191 -29.04726,-0.433187 -31.20863,0.0532 m 35.53523,-0.0252 c -0.0817,0.215613 -0.10289,9.451697 -0.0476,20.525251 0.0785,15.626076 0.18288,20.415206 0.46701,21.393306 0.57105,1.96712 3.13,5.66979 4.9292,7.13315 4.4309,3.60299 9.27681,4.52704 15.27092,2.91246 5.65101,-1.52217 9.96627,-5.8616 11.0475,-11.1094 0.16822,-0.81625 0.30572,-3.10483 0.30572,-5.08595 v -3.60214 l 3.80425,0.0423 c 4.26186,0.0473 5.95869,-0.3153 8.646,-1.84699 3.28825,-1.874153 6.30232,-5.959323 7.30829,-9.905043 0.506869,-1.989241 0.575209,-6.119492 0.136959,-8.276464 -0.166009,-0.81597 -0.787409,-2.513993 -1.381419,-3.77295 -1.823,-3.865916 -5.06366,-6.664967 -9.3839,-8.105375 -1.40023,-0.467068 -3.09706,-0.51495 -21.23789,-0.600636 -16.69855,-0.07896 -19.73918,-0.03304 -19.86506,0.298498 m 8.51321,8.384832 c -0.28443,0.348061 -0.34087,3.458771 -0.27668,15.235448 l 0.0808,14.79806 0.68255,1.35249 c 2.37413,4.704 8.15298,5.83611 12.05322,2.36138 3.35907,-2.99254 3.47969,-7.5235 0.30268,-11.372056 -1.24253,-1.505091 -1.95385,-3.804311 -1.68438,-5.44297 0.90057,-5.473214 6.83517,-7.348489 11.14269,-3.520656 3.25255,2.890337 7.16967,2.919458 10.27919,0.07644 3.52868,-3.226637 3.58762,-8.081573 0.13973,-11.505622 -0.89753,-0.891574 -1.86921,-1.564734 -2.52381,-1.749266 -0.65073,-0.183411 -6.6595,-0.371863 -15.45158,-0.48527 -12.84699,-0.16521 -14.42513,-0.138328 -14.7444,0.252016 m -43.1166,1.15479 c -0.90139,0.912576 -1.2085,1.441528 -1.2085,2.081927 0,1.909716 1.36316,3.841274 2.91999,4.136691 1.00155,0.190133 1.98817,-0.241934 3.8676,-1.694103 1.57205,-1.214153 2.90866,-1.64706 5.03544,-1.630819 4.16667,0.03192 7.33346,3.28012 7.33568,7.524339 8.2e-4,1.922876 -0.55085,3.414807 -2.11212,5.712067 -1.32969,1.956199 -1.43398,2.506433 -0.76555,4.035606 0.61836,1.414926 1.92371,2.409826 3.16402,2.411506 1.25194,0.002 2.63724,-0.74008 3.23485,-1.732185 0.53398,-0.886253 0.55861,-1.388884 0.55944,-11.497499 l 10e-4,-10.570644 h -10.41154 -10.41146 l -1.20877,1.223114"
         style="fill:#ffffff;fill-rule:evenodd;stroke:none;stroke-width:0.278339"
         id="path347" />
    </g>
  </g>
</svg>
