<?xml version="1.0" encoding="UTF-8" standalone="no"?>
<svg
   width="841"
   height="841"
   viewBox="0 0 841 841"
   version="1.1"
   id="svg4"
   xmlns="http://www.w3.org/2000/svg"
   xmlns:svg="http://www.w3.org/2000/svg">
  <defs
     id="defs8" />
  <path
     d="M 356.500 40.411 C 334.541 45.861, 322.587 64.473, 324.447 90.317 L 325.082 99.135 320.291 98.336 C 312.067 96.965, 299.929 97.656, 293.688 99.849 C 283.078 103.579, 273.300 113.140, 268.619 124.364 C 261.027 142.565, 268.329 167.723, 284.277 178.308 C 294.949 185.391, 294.490 185.342, 353.503 185.761 C 389.279 186.016, 407.412 185.794, 409.292 185.079 L 412.078 184.020 411.789 127.237 L 411.500 70.454 408.071 63.477 C 398.848 44.708, 377.556 35.185, 356.500 40.411 M 457 40.827 C 445.495 44.656, 437.719 50.275, 432.384 58.615 C 426.094 68.447, 426 69.496, 426 130.079 L 426 184.738 429.750 185.358 C 435.913 186.377, 527.940 186.041, 535.327 184.973 C 549.350 182.946, 562.060 173.430, 568.278 160.302 C 571.300 153.923, 571.500 152.816, 571.500 142.500 C 571.500 134.410, 571.015 130.108, 569.665 126.237 C 566.882 118.254, 560.703 109.725, 554.747 105.647 C 545.834 99.545, 542.203 98.636, 526.459 98.564 L 512.418 98.500 513.263 92 C 513.729 88.425, 513.836 81.789, 513.503 77.254 C 512.993 70.325, 512.335 68.010, 509.383 62.754 C 504.404 53.893, 497.801 47.531, 489.112 43.223 C 482.375 39.882, 480.877 39.535, 472.112 39.278 C 464.874 39.066, 461.142 39.449, 457 40.827 M 361.182 72.030 C 359.149 73.270, 357.087 75.811, 355.857 78.591 C 353.463 84.003, 354.078 86.614, 359.484 93.978 C 364.572 100.909, 366 105.029, 366 112.772 C 366 135.933, 340.405 147.879, 321.574 133.505 C 319.196 131.690, 316.324 129.708, 315.191 129.102 C 307.152 124.800, 295.240 133.139, 296.357 142.288 C 296.937 147.039, 299.195 150.536, 303.304 153.051 C 306.345 154.912, 308.293 154.994, 343.500 154.753 L 380.500 154.500 380.762 117.224 C 381.052 75.973, 381.032 75.819, 374.701 71.960 C 370.582 69.448, 365.374 69.475, 361.182 72.030 M 462.343 72.056 C 456.279 75.941, 456 77.986, 456 118.520 L 456 155 493.099 155 C 534.260 155, 535.052 154.888, 538.984 148.526 C 542.712 142.493, 540.624 133.628, 534.580 129.827 C 529.835 126.843, 524.652 127.852, 516.122 133.420 C 507.108 139.304, 500.452 140.927, 492.323 139.222 C 481.608 136.975, 475.280 130.510, 472.409 118.876 C 470.131 109.642, 471.567 103.257, 478.072 93.712 C 483.588 85.617, 484.084 82.701, 480.906 77.046 C 477.015 70.124, 468.805 67.917, 462.343 72.056 M 298 200.390 C 283.038 203.717, 272.062 214.502, 267.480 230.380 C 266.228 234.717, 265.881 238.917, 266.158 246.392 C 266.631 259.170, 269.436 265.563, 278.612 274.774 C 288.934 285.134, 301.187 289.256, 315.386 287.145 C 319.398 286.548, 323.494 285.747, 324.488 285.366 C 326.056 284.764, 326.206 285.059, 325.622 287.586 C 323.962 294.759, 323.798 307.576, 325.294 313.250 C 330.931 334.630, 353.275 348.952, 374.949 345.078 C 393.102 341.834, 407.172 329.220, 410.961 312.791 C 412.480 306.209, 412.330 201.730, 410.800 200.200 C 409.079 198.479, 305.812 198.653, 298 200.390 M 426.438 200.300 C 426.143 201.070, 426.066 234.054, 426.266 273.600 C 426.550 329.404, 426.927 346.507, 427.954 350 C 430.018 357.025, 439.267 370.248, 445.770 375.474 C 461.785 388.341, 479.300 391.641, 500.965 385.875 C 521.390 380.439, 536.987 364.942, 540.895 346.201 C 541.503 343.286, 542 335.113, 542 328.038 L 542 315.174 555.750 315.325 C 571.154 315.494, 577.287 314.199, 587 308.729 C 598.885 302.036, 609.779 287.447, 613.415 273.356 C 615.247 266.252, 615.494 251.502, 613.910 243.799 C 613.310 240.885, 611.064 234.821, 608.917 230.325 C 602.328 216.519, 590.615 206.523, 575 201.379 C 569.939 199.711, 563.806 199.540, 498.238 199.234 C 437.883 198.952, 426.893 199.116, 426.438 200.300 M 457.208 230.244 C 456.180 231.487, 455.976 242.596, 456.208 284.653 L 456.500 337.500 458.967 342.330 C 467.548 359.129, 488.435 363.172, 502.532 350.763 C 514.673 340.076, 515.109 323.895, 503.626 310.151 C 499.135 304.776, 496.564 296.565, 497.538 290.713 C 500.793 271.167, 522.243 264.470, 537.812 278.140 C 549.568 288.462, 563.726 288.566, 574.965 278.413 C 587.719 266.890, 587.932 249.552, 575.470 237.324 C 572.226 234.140, 568.714 231.736, 566.348 231.077 C 563.996 230.422, 542.278 229.749, 510.500 229.344 C 464.066 228.754, 458.362 228.850, 457.208 230.244 M 301.368 234.368 C 298.110 237.627, 297 239.516, 297 241.803 C 297 248.623, 301.927 255.521, 307.554 256.576 C 311.174 257.255, 314.740 255.712, 321.533 250.526 C 327.215 246.190, 332.046 244.644, 339.733 244.702 C 354.793 244.816, 366.239 256.416, 366.247 271.573 C 366.250 278.440, 364.256 283.768, 358.613 291.972 C 353.807 298.958, 353.430 300.923, 355.846 306.384 C 358.081 311.437, 362.799 314.990, 367.282 314.996 C 371.807 315.002, 376.814 312.353, 378.974 308.810 C 380.904 305.645, 380.993 303.850, 380.996 267.750 L 381 230 343.368 230 L 305.737 230 301.368 234.368 M 250.750 433.215 C 242.637 441.612, 236 448.997, 236 449.625 C 236 450.975, 239.236 451.967, 243.699 451.986 C 245.735 451.995, 253.091 448.901, 263.936 443.474 C 282.307 434.281, 282.455 434.140, 281.820 426.437 C 281.398 421.333, 276.800 418.012, 270.102 417.973 L 265.500 417.947 250.750 433.215 M 110.500 426.422 C 92.434 430.540, 73.942 442.215, 64.475 455.483 C 55.658 467.839, 51.054 481.372, 51.017 495.040 C 50.943 523.035, 73.448 543.931, 105.592 545.712 C 132.181 547.185, 154.819 534.235, 165.049 511.700 C 167.859 505.512, 167.585 503.613, 163.679 502.201 C 158.122 500.191, 156.753 500.742, 152.500 506.696 C 150.300 509.775, 145.270 515.998, 141.322 520.524 C 130.855 532.522, 123.721 535.327, 114.421 531.104 C 103.723 526.245, 101.992 516.035, 107.621 491 C 110.398 478.649, 124.061 447.408, 128.937 442.261 C 135.904 434.905, 147.962 435.051, 153.871 442.563 C 156.343 445.706, 159.304 453.430, 161.050 461.292 L 162.337 467.084 168.846 466.792 L 175.356 466.500 180.130 447 C 182.756 436.275, 184.926 427.108, 184.952 426.630 C 184.979 426.151, 182.357 425.951, 179.127 426.184 C 174.596 426.512, 172.521 427.225, 170.050 429.305 C 165.964 432.743, 164.225 432.692, 153.941 428.830 C 146.110 425.889, 144.452 425.638, 131 425.357 C 121.297 425.154, 114.515 425.507, 110.500 426.422 M 445.921 426.367 C 437.450 429.396, 434.016 433.963, 434.007 442.215 C 434.001 447.204, 434.400 448.386, 437.148 451.516 C 441.194 456.123, 444.728 457.906, 452.203 459.110 C 458.923 460.192, 464.931 458.813, 472.620 454.421 C 483.460 448.230, 481.936 433.635, 469.818 427.597 C 465.552 425.471, 463.238 425.008, 457.054 425.044 C 452.899 425.068, 447.890 425.663, 445.921 426.367 M 520.357 434.446 C 517.201 435.819, 515.947 438.221, 511.974 450.500 C 508.857 460.135, 505.711 462.949, 498 463.001 C 492.053 463.040, 491.324 463.646, 490.484 469.250 L 489.773 474 496.886 474 C 501.914 474, 503.998 474.367, 503.993 475.250 C 503.990 475.938, 501.960 483.914, 499.483 492.975 C 493.317 515.536, 492.542 520.455, 494.017 527.667 C 495.017 532.561, 495.966 534.235, 499.910 538.066 C 505.841 543.826, 511.393 545.545, 523.500 545.369 C 537.995 545.159, 548.276 539.980, 557.483 528.252 C 562.700 521.607, 563.275 518.065, 559.535 515.615 C 558.180 514.727, 556.571 514, 555.962 514 C 555.352 514, 552.570 516.498, 549.780 519.550 C 544.343 525.500, 540.788 526.525, 540.189 522.317 C 539.772 519.388, 549.637 481.203, 551.574 478.247 C 553.679 475.034, 556.951 474, 565.008 474 C 570.983 474, 572.091 473.708, 573.443 471.777 C 574.299 470.555, 575 468.080, 575 466.277 L 575 463 565.112 463 L 555.223 463 558.662 449.353 C 560.554 441.847, 561.868 435.097, 561.582 434.353 C 560.833 432.401, 524.870 432.482, 520.357 434.446 M 212 461.886 C 208.975 462.864, 204.475 464.706, 202 465.979 C 195.884 469.126, 184.867 480.355, 181.632 486.739 C 170.479 508.750, 176.813 534.914, 195.273 543.088 C 199.350 544.893, 202.290 545.400, 208.639 545.393 C 215.733 545.385, 217.594 544.981, 223.139 542.246 C 226.637 540.520, 231.501 537.064, 233.946 534.566 L 238.391 530.025 240.522 534.263 C 243.564 540.316, 249.117 543.884, 257.297 545.043 C 276.257 547.728, 293.766 538.712, 303 521.508 L 305.500 516.851 303.139 514.925 C 299.686 512.109, 298.518 512.470, 293.187 518 C 290.536 520.750, 287.556 523, 286.564 523 C 284.986 523, 284.812 522.280, 285.178 517.250 C 285.409 514.087, 286.363 509.968, 287.299 508.096 C 288.234 506.224, 289 504.093, 289 503.360 C 289 502.627, 291.250 494.002, 294 484.194 C 296.750 474.386, 299 465.380, 299 464.181 C 299 462.006, 298.944 462, 276.901 462 L 254.802 462 251.976 465.026 L 249.150 468.051 244.359 465.013 C 241.725 463.342, 237.979 461.533, 236.035 460.993 C 230.481 459.450, 218.113 459.909, 212 461.886 M 380.500 461.896 C 375.919 464.017, 372.790 467.201, 367.633 474.987 L 364 480.473 364 471.737 L 364 463 337.617 463 L 311.233 463 310.630 465.250 C 309.239 470.443, 309.832 471.878, 313.815 472.950 C 315.913 473.515, 318.679 475.094, 319.960 476.458 C 322.113 478.750, 322.246 479.528, 321.709 486.719 C 321.355 491.465, 318.939 502.496, 315.515 515 C 312.428 526.275, 309.640 537.188, 309.319 539.250 L 308.737 543 330.713 543 C 350.376 543, 352.856 542.816, 354.266 541.250 C 355.133 540.288, 357.487 533.875, 359.498 527 C 362.679 516.123, 364.942 509.699, 372.766 489.341 L 374.364 485.182 377.047 489.413 C 380.601 495.018, 385.667 497.436, 392.225 496.660 C 402.712 495.418, 408 488.915, 408 477.262 C 408 469.109, 405.675 464.613, 399.980 461.752 C 395.307 459.404, 385.730 459.475, 380.500 461.896 M 602.634 461.586 C 585.454 465.745, 571.149 480.316, 567.008 497.875 C 566.229 501.180, 565.926 506.797, 566.222 512.462 C 567.005 527.427, 572.775 537.331, 583.818 542.663 C 588.605 544.974, 590.838 545.414, 598 545.453 C 605.338 545.494, 607.278 545.118, 612.192 542.705 C 615.323 541.167, 620.075 537.940, 622.752 535.533 L 627.620 531.157 631.060 535.766 C 641.875 550.258, 667.374 548.735, 684.752 532.559 L 690.417 527.286 693.458 532.365 C 700.516 544.148, 715.839 546.863, 753 542.915 C 764.051 541.741, 772.458 538.233, 778.674 532.200 C 783.940 527.090, 786 522.393, 786 515.500 C 786 504.647, 781.040 498.946, 764.680 490.995 C 754.366 485.982, 749.796 482.397, 748.581 478.365 C 747.624 475.186, 752.968 471, 757.983 471 L 761.813 471 760.774 474.386 C 758.442 481.983, 762.380 488.726, 770.469 490.991 C 776.706 492.738, 781.727 491.570, 785.590 487.473 C 792.379 480.275, 790.148 469.270, 780.926 464.470 C 770.794 459.197, 739.927 458.592, 725.285 463.379 C 710.176 468.319, 704.045 475.276, 704.016 487.516 C 703.991 498.219, 705.247 499.869, 722.005 511.151 C 729.890 516.460, 736.929 521.925, 737.647 523.296 C 738.790 525.478, 738.700 526.112, 736.922 528.372 C 734.687 531.214, 726.394 534.177, 723.093 533.314 C 721.192 532.817, 721.088 532.258, 721.654 525.569 C 722.353 517.293, 721.468 514.866, 716.686 511.950 C 712.234 509.236, 701.489 509.272, 695.454 512.021 C 692.987 513.145, 690.014 513.798, 688.758 513.492 C 686.914 513.043, 685.722 513.955, 682.255 518.471 C 678.062 523.934, 674.790 525.502, 673.672 522.588 C 673.374 521.811, 676.701 508.278, 681.065 492.515 C 685.429 476.751, 689 463.437, 689 462.927 C 689 462.385, 679.520 462, 666.155 462 C 645.293 462, 643.166 462.159, 641.655 463.829 C 640.745 464.835, 640 466.414, 640 467.339 C 640 468.679, 638.899 468.289, 634.583 465.424 C 631.603 463.445, 627.441 461.426, 625.333 460.937 C 619.789 459.651, 609.405 459.948, 602.634 461.586 M 419.282 463.736 C 415.111 464.029, 413.657 464.620, 412.032 466.686 C 409.019 470.517, 409.484 471.490, 415.005 472.905 C 417.758 473.610, 420.971 474.966, 422.147 475.918 L 424.284 477.648 419.491 495.574 C 413.712 517.190, 412.791 526.479, 415.762 533.195 C 418.349 539.043, 423.039 542.538, 431.057 544.595 C 447.824 548.896, 467.234 541.838, 477.686 527.640 C 482.640 520.911, 482.981 518.873, 479.535 516.615 C 475.831 514.188, 474.918 514.549, 469.687 520.513 C 464.321 526.632, 461 527.708, 461 523.329 C 461 521.860, 464.375 508.422, 468.500 493.467 C 472.625 478.513, 476 465.540, 476 464.639 C 476 463.158, 473.515 463.018, 450.250 463.185 C 436.087 463.287, 422.152 463.535, 419.282 463.736 M 238.121 480.390 C 235.201 482.008, 233.950 484.894, 228.879 501.699 C 225.067 514.335, 224.964 515.030, 226.479 517.959 C 228.041 520.979, 228.101 520.999, 231.091 519.453 C 234.492 517.694, 235.666 515.318, 241.869 497.642 L 246.030 485.784 243.933 482.392 C 241.586 478.595, 241.446 478.546, 238.121 480.390 M 626.533 481.376 C 624.994 482.915, 622.545 488.759, 619.579 497.971 C 614.835 512.704, 614.304 515.831, 616.006 519.012 C 616.865 520.616, 617.456 520.737, 620.037 519.837 C 623.768 518.537, 624.966 516.266, 630.990 499.073 L 635.746 485.500 633.623 482.263 C 631.085 478.394, 629.690 478.219, 626.533 481.376 M 316.660 587.750 C 314.613 595.302, 314.459 595, 320.356 595 C 325.597 595, 325.768 594.912, 326.375 591.875 C 327.510 586.201, 327.362 586, 322.067 586 C 318.217 586, 317.031 586.384, 316.660 587.750 M 373.613 587.750 C 372.800 590.477, 366 626.099, 366 627.633 C 366 628.606, 367.436 629, 370.981 629 C 375.328 629, 376.027 628.714, 376.473 626.750 C 377.724 621.250, 384 588.262, 384 587.191 C 384 586.431, 382.216 586, 379.067 586 C 375.235 586, 374.018 586.390, 373.613 587.750 M 431.981 592.750 C 431.295 596.462, 430.572 599.790, 430.373 600.145 C 430.174 600.500, 428.321 599.927, 426.256 598.873 C 414.226 592.731, 400.246 610.109, 406.014 624.034 C 408.284 629.515, 415.939 631.634, 422.050 628.474 C 423.741 627.600, 425 627.386, 425 627.974 C 425 628.546, 427.345 629, 430.301 629 L 435.602 629 439.439 608.750 C 441.549 597.612, 443.487 587.938, 443.745 587.250 C 444.085 586.345, 442.699 586, 438.720 586 L 433.226 586 431.981 592.750 M 490.520 587.250 C 490.291 587.938, 488.492 596.825, 486.522 607 C 484.552 617.175, 482.771 626.288, 482.564 627.250 C 482.243 628.743, 482.961 629, 487.448 629 L 492.710 629 496.855 608.250 C 499.136 596.837, 501.001 587.163, 501.001 586.750 C 501 585.424, 490.970 585.903, 490.520 587.250 M 733.677 586.750 C 733.435 587.163, 732.660 590.772, 731.955 594.770 L 730.672 602.041 728.586 600.092 C 724.510 596.283, 717.184 596.935, 712.061 601.564 C 704.146 608.715, 702.558 621.535, 708.887 627.191 C 712.703 630.600, 717.973 630.924, 722.702 628.040 C 725.094 626.582, 725.762 626.456, 725.345 627.544 C 724.897 628.712, 725.895 629, 730.393 629 C 733.477 629, 736 628.817, 736 628.593 C 736 628.369, 737.796 619.032, 739.991 607.843 C 742.186 596.654, 743.986 587.163, 743.991 586.750 C 743.996 586.337, 741.777 586, 739.059 586 C 736.341 586, 733.920 586.337, 733.677 586.750 M 534.500 588.504 C 528.496 590.743, 525 595.369, 525 601.076 C 525 607.108, 527.938 610.158, 535.903 612.393 C 543.521 614.530, 545.131 616.315, 542.138 619.305 C 539.366 622.074, 531.141 622.223, 526.135 619.596 C 522.273 617.569, 521.496 618.073, 520.585 623.201 L 519.928 626.901 525.145 628.451 C 531.300 630.278, 539.344 630.454, 544.101 628.864 C 551.792 626.293, 556.323 618.539, 554.089 611.769 C 552.827 607.947, 550.065 606.139, 541.066 603.247 C 535.122 601.336, 534.292 600.350, 536.307 597.594 C 537.908 595.406, 545.716 595.091, 551.452 596.984 C 553.477 597.653, 555.277 598.042, 555.453 597.850 C 555.628 597.657, 556.077 595.647, 556.451 593.382 C 557.272 588.410, 556.984 588.245, 546.223 587.527 C 540.740 587.161, 537.340 587.445, 534.500 588.504 M 67 588.321 C 67 588.497, 65.200 597.578, 63 608.500 C 60.800 619.422, 59 628.503, 59 628.679 C 59 628.856, 61.489 629, 64.531 629 C 70.629 629, 70.325 629.335, 72.012 620.750 L 73.142 615 78.821 614.994 C 81.944 614.991, 86.150 614.530, 88.168 613.970 C 96.013 611.791, 101.161 601.080, 97.638 594.267 C 95.119 589.396, 90.767 588, 78.099 588 C 71.994 588, 67 588.144, 67 588.321 M 76.621 597.750 C 76.338 598.712, 75.795 601.253, 75.415 603.396 L 74.723 607.291 79.551 606.747 C 84.669 606.170, 87 604.218, 87 600.509 C 87 597.413, 85.078 596, 80.867 596 C 78.175 596, 76.992 596.488, 76.621 597.750 M 108.269 597.899 C 103.142 598.784, 103.349 598.588, 102.448 603.411 C 101.777 607.002, 101.872 607.253, 103.608 606.472 C 106.861 605.008, 116.947 604.711, 118.538 606.032 C 121.100 608.158, 120.160 608.720, 113.215 609.217 C 104.520 609.839, 99.635 612.143, 97.508 616.624 C 95.417 621.031, 96.277 625.284, 99.827 628.086 C 101.952 629.764, 103.476 630.104, 107.260 629.744 C 109.883 629.495, 112.914 628.483, 114.010 627.491 C 115.850 625.826, 116 625.819, 116 627.397 C 116 628.827, 116.847 629.055, 121.212 628.802 L 126.424 628.500 128.166 620 C 130.005 611.030, 130.408 605.227, 129.379 602.545 C 127.934 598.780, 117.044 596.384, 108.269 597.899 M 157.942 597.948 C 156.534 598.375, 154.397 599.252, 153.192 599.897 C 151.379 600.868, 151 600.805, 151 599.535 C 151 598.360, 149.831 598, 146.019 598 C 141.677 598, 140.970 598.289, 140.508 600.250 C 139.472 604.649, 135 627.289, 135 628.138 C 135 628.612, 137.403 629, 140.340 629 L 145.680 629 146.946 621.750 C 149.191 608.902, 151.979 605.331, 159.031 606.277 C 162.681 606.767, 162.789 606.689, 163.376 603.140 C 164.473 596.504, 164.046 596.096, 157.942 597.948 M 185.209 597.984 C 183.399 598.413, 181.068 599.534, 180.029 600.474 C 178.229 602.103, 178.165 602.084, 178.686 600.092 C 179.191 598.160, 178.820 598, 173.830 598 L 168.428 598 165.714 611.808 C 164.221 619.402, 163 626.377, 163 627.308 C 163 628.669, 163.965 629, 167.933 629 C 173.473 629, 172.900 629.853, 175.477 617.773 C 177.442 608.564, 180.070 605.708, 186.170 606.148 C 188.230 606.297, 190.096 606.212, 190.318 605.959 C 190.540 605.707, 191.015 603.587, 191.373 601.250 C 192.091 596.558, 191.825 596.417, 185.209 597.984 M 204.692 598.396 C 198.671 600.054, 193.570 604.879, 191.541 610.835 C 189.554 616.664, 189.592 617.526, 192.060 622.625 C 197.374 633.601, 216.134 632.003, 222.880 620 C 225.667 615.041, 226.038 607.233, 223.659 603.603 C 220.260 598.415, 212.429 596.266, 204.692 598.396 M 242.159 598.020 C 230.743 600.634, 224.643 619.825, 232.887 627.191 C 236.682 630.581, 241.968 630.927, 246.623 628.088 L 249.746 626.184 248.978 629.842 C 248.556 631.854, 247.917 635.188, 247.560 637.250 L 246.909 641 252.267 641 L 257.625 641 261.457 620.750 C 263.565 609.612, 265.498 599.938, 265.752 599.250 C 266.087 598.344, 264.672 598, 260.607 598 C 255.517 598, 255 598.200, 255 600.174 L 255 602.349 252.750 600.306 C 249.957 597.770, 246.504 597.024, 242.159 598.020 M 339.269 597.899 C 334.168 598.780, 334.039 598.894, 333.010 603.457 C 332.239 606.872, 332.314 607.029, 334.347 606.287 C 335.531 605.854, 339.417 605.500, 342.982 605.500 C 348.129 605.500, 349.528 605.830, 349.777 607.101 C 350.032 608.406, 348.775 608.813, 342.977 609.299 C 332.146 610.207, 327.005 614.145, 327.047 621.500 C 327.089 628.946, 336.317 632.543, 343.750 628.011 C 346.402 626.394, 347 626.303, 347 627.515 C 347 629.433, 356.542 629.652, 357.255 627.750 C 357.513 627.063, 358.531 621.882, 359.517 616.238 C 361.480 605.001, 361.047 602.360, 356.796 599.633 C 353.960 597.815, 344.931 596.921, 339.269 597.899 M 460.138 598.079 C 451.071 599.856, 445 607.570, 445 617.314 C 445 623.248, 447.471 627.088, 452.527 629.010 C 457.553 630.921, 472.858 629.657, 474.373 627.205 C 474.618 626.809, 475.132 624.814, 475.515 622.772 L 476.211 619.060 470.069 621.134 C 463.091 623.491, 457.637 623.059, 456.012 620.023 C 455.455 618.983, 455 617.877, 455 617.566 C 455 617.255, 460.127 617, 466.393 617 C 479.009 617, 479.013 616.998, 478.985 610.168 C 478.948 600.778, 471.323 595.888, 460.138 598.079 M 572.792 597.884 C 570.203 598.268, 567.900 598.789, 567.675 599.041 C 567.450 599.294, 566.949 601.248, 566.562 603.384 C 565.925 606.903, 566.030 607.188, 567.680 606.414 C 568.681 605.944, 572.642 605.546, 576.482 605.530 C 582.350 605.505, 583.519 605.779, 583.806 607.250 C 584.092 608.721, 583.379 609.001, 579.323 609.006 C 567.796 609.019, 561 613.598, 561 621.350 C 561 625.026, 561.485 626.236, 563.635 627.927 C 566.799 630.416, 572.819 630.662, 577.050 628.474 C 578.741 627.600, 580 627.386, 580 627.974 C 580 628.547, 582.350 629, 585.317 629 L 590.633 629 592.463 619.286 C 595.040 605.605, 594.579 601.446, 590.227 599.124 C 587.673 597.761, 578.175 597.085, 572.792 597.884 M 611.684 598.449 C 606.942 600.140, 604.293 602.489, 602.038 607 C 596.520 618.040, 600.540 629, 610.105 629 C 612.302 629, 615.427 628.313, 617.050 627.474 C 620.903 625.482, 620.916 627.238, 617.077 631.077 C 613.894 634.260, 608.696 634.976, 603.398 632.961 C 600.234 631.758, 599.040 632.895, 599.015 637.133 C 599.004 639.026, 599.633 639.936, 601.250 640.370 C 605.354 641.470, 617.014 641.021, 620.329 639.636 C 624.257 637.995, 628.434 633.254, 629.900 628.775 C 631.100 625.108, 636 601.481, 636 599.362 C 636 597.457, 626.145 597.458, 625.414 599.364 C 624.990 600.470, 624.196 600.375, 621.234 598.864 C 616.949 596.680, 616.677 596.668, 611.684 598.449 M 664.500 597.491 C 663.950 597.675, 662.294 598.090, 660.820 598.414 C 659.346 598.738, 657.374 599.769, 656.438 600.705 C 654.836 602.307, 654.777 602.278, 655.435 600.203 C 656.099 598.112, 655.851 598, 650.567 598 C 647.505 598, 645 598.222, 645 598.493 C 645 599.405, 639.907 625.480, 639.383 627.250 C 638.935 628.766, 639.594 629, 644.303 629 L 649.740 629 650.924 622.750 C 653.511 609.092, 656.099 605.513, 662.919 606.164 C 666.936 606.547, 666.979 606.515, 667.820 602.525 C 668.935 597.237, 668.273 596.233, 664.500 597.491 M 678.269 597.899 C 673.168 598.780, 673.039 598.894, 672.010 603.457 C 671.239 606.872, 671.314 607.029, 673.347 606.287 C 674.531 605.854, 678.417 605.500, 681.982 605.500 C 687.129 605.500, 688.528 605.830, 688.777 607.101 C 689.031 608.404, 687.790 608.811, 682.120 609.287 C 673.892 609.977, 669.599 611.940, 667.517 615.967 C 662.376 625.908, 672.749 634.109, 682.750 628.011 C 685.402 626.394, 686 626.303, 686 627.515 C 686 629.433, 695.543 629.652, 696.252 627.750 C 696.509 627.063, 697.541 622.104, 698.546 616.732 C 700.579 605.864, 700.127 602.871, 696 599.911 C 693.103 597.834, 684.380 596.844, 678.269 597.899 M 760.221 598.065 C 751.773 599.725, 746.215 606.148, 745.368 615.232 C 744.445 625.122, 750.798 630.617, 762.202 629.792 C 769.176 629.287, 774.307 625.719, 777.750 618.980 C 784.511 605.748, 775.548 595.054, 760.221 598.065 M 272.081 609.783 C 269.752 622.280, 270.072 625.812, 273.789 628.637 C 276.405 630.624, 283.053 630.265, 286.882 627.931 C 289.570 626.292, 290.141 626.190, 289.664 627.434 C 289.164 628.735, 289.969 629, 294.423 629 C 300.599 629, 299.752 630.583, 302.985 613 C 304.148 606.675, 305.332 600.712, 305.617 599.750 C 306.065 598.235, 305.407 598, 300.704 598 L 295.274 598 293.563 606.616 C 291.398 617.516, 290.435 619.577, 286.805 621.081 C 284.364 622.092, 283.611 622.040, 282.343 620.772 C 280.822 619.251, 281.168 616.042, 284.555 600.250 C 285.009 598.136, 284.714 598, 279.658 598 L 274.278 598 272.081 609.783 M 311.682 612.342 C 310.207 620.231, 309 627.206, 309 627.842 C 309 628.563, 310.863 629, 313.933 629 C 317.766 629, 318.981 628.610, 319.383 627.250 C 319.907 625.480, 325 599.405, 325 598.493 C 325 598.222, 322.607 598, 319.682 598 L 314.364 598 311.682 612.342 M 205.503 607.250 C 202.485 609.854, 200.728 616.155, 202.051 619.633 C 202.959 622.023, 205.943 622.727, 209.455 621.379 C 213.774 619.722, 215.766 608.015, 212.066 606.035 C 209.306 604.558, 208.437 604.719, 205.503 607.250 M 244.360 606.460 C 240.040 609.486, 238.573 619.093, 242.095 621.296 C 246.607 624.119, 252 618.649, 252 611.250 C 252 605.338, 248.814 603.340, 244.360 606.460 M 419.091 607.403 C 416.333 610.339, 414.824 616.408, 416.051 619.633 C 416.701 621.344, 417.719 621.996, 419.725 621.985 C 423.291 621.965, 424.356 621.213, 426.360 617.300 C 430.803 608.627, 425.159 600.944, 419.091 607.403 M 458.750 607.250 L 456.500 609.500 462.363 609.803 C 465.588 609.970, 468.437 609.896, 468.694 609.639 C 468.952 609.382, 468.660 608.233, 468.046 607.086 C 466.524 604.241, 461.673 604.327, 458.750 607.250 M 614.065 606.935 C 609.769 611.231, 609.549 620.126, 613.711 621.214 C 618.357 622.429, 623 617.126, 623 610.604 C 623 605.503, 617.681 603.319, 614.065 606.935 M 720.360 606.460 C 716.040 609.486, 714.573 619.093, 718.095 621.296 C 722.607 624.119, 728 618.649, 728 611.250 C 728 605.338, 724.814 603.340, 720.360 606.460 M 760.750 606.080 C 758.365 607.469, 756 612.289, 756 615.759 C 756 622.809, 762.589 624.249, 766.718 618.102 C 771.765 610.587, 767.559 602.114, 760.750 606.080 M 107.930 617.584 C 106.264 619.592, 107.802 622.366, 110.831 622.817 C 112.970 623.135, 118 619.086, 118 617.045 C 118 615.333, 109.417 615.792, 107.930 617.584 M 339.200 617.200 C 337.507 618.893, 337.710 621.675, 339.579 622.392 C 342.364 623.460, 346.026 621.850, 347.561 618.883 L 349.051 616 344.726 616 C 342.347 616, 339.860 616.540, 339.200 617.200 M 571.966 618.064 C 571.146 619.596, 571.168 620.498, 572.053 621.564 C 573.722 623.575, 576.282 623.352, 579.365 620.927 C 583.432 617.728, 582.790 616, 577.535 616 C 574.048 616, 572.829 616.452, 571.966 618.064 M 678.200 617.200 C 676.363 619.037, 676.771 621.793, 678.984 622.495 C 681.658 623.344, 686.113 621.019, 687.118 618.250 C 687.885 616.140, 687.669 616, 683.668 616 C 681.320 616, 678.860 616.540, 678.200 617.200 M 350.643 656.250 C 347.316 660.099, 346.512 661.590, 347.632 661.839 C 350.533 662.482, 353.521 660.946, 359 655.993 L 364.500 651.022 359.840 651.011 C 355.456 651.001, 354.911 651.311, 350.643 656.250 M 639.250 655.936 C 636.913 658.650, 635 661.125, 635 661.436 C 635 661.746, 636.237 661.989, 637.750 661.976 C 639.657 661.959, 642.339 660.285, 646.500 656.515 L 652.500 651.078 648 651.039 C 643.830 651.004, 643.188 651.363, 639.250 655.936 M 456.677 653.750 C 456.435 654.163, 455.669 657.720, 454.975 661.655 C 453.739 668.668, 453.675 668.775, 451.777 667.007 C 447.234 662.775, 439.240 664.034, 433.819 669.835 C 426.922 677.216, 426.069 688.992, 432.044 694.331 C 434.908 696.889, 435.853 697.172, 440.153 696.759 C 442.935 696.492, 445.946 695.479, 447.180 694.396 C 449.125 692.688, 449.276 692.674, 448.701 694.250 C 448.143 695.781, 448.747 696, 453.531 696 C 456.539 696, 459.003 695.888, 459.006 695.750 C 459.009 695.612, 460.806 686.275, 463 675 C 465.194 663.725, 466.991 654.163, 466.994 653.750 C 466.997 653.337, 464.777 653, 462.059 653 C 459.341 653, 456.920 653.337, 456.677 653.750 M 171 655.161 C 162.220 657.555, 154.531 666.361, 153.136 675.622 C 150.721 691.651, 161.540 699.865, 179.884 695.931 C 184.775 694.883, 184.886 694.776, 185.863 690.194 C 186.411 687.626, 186.751 685.418, 186.620 685.286 C 186.488 685.155, 184.040 685.937, 181.180 687.024 C 178.319 688.111, 174.843 689, 173.454 689 C 166.960 689, 162.901 681.794, 165.002 673.993 C 166.348 668.994, 172.095 663.054, 175.783 662.849 C 180.917 662.564, 184.504 663.157, 186.876 664.683 C 188.853 665.954, 189.396 665.983, 190.110 664.855 C 190.583 664.110, 190.976 662.749, 190.985 661.832 C 190.993 660.914, 191.262 659.480, 191.583 658.645 C 192.021 657.503, 190.860 656.739, 186.901 655.563 C 181.085 653.836, 176.303 653.715, 171 655.161 M 532.520 656.250 C 532.291 656.938, 530.462 665.825, 528.457 676 C 526.326 686.809, 524.156 695.234, 523.237 696.265 C 522.371 697.236, 520.291 698.386, 518.615 698.820 C 516.105 699.470, 515.426 700.289, 514.768 703.456 C 514.328 705.571, 514.178 707.511, 514.433 707.767 C 515.407 708.740, 527.611 705.932, 529.931 704.200 C 534.083 701.103, 535.975 695.815, 539.537 677.348 C 541.430 667.532, 543.218 658.487, 543.509 657.250 C 544.009 655.123, 543.734 655, 538.488 655 C 534.936 655, 532.787 655.450, 532.520 656.250 M 207.721 665.398 C 199.387 667.678, 194 674.913, 194 683.825 C 194 689.579, 196.530 693.488, 201.636 695.621 C 207.951 698.260, 217.269 696.727, 222.355 692.212 C 225.047 689.822, 228.979 681.098, 228.986 677.500 C 228.994 673.930, 226.001 668.683, 222.798 666.650 C 219.338 664.455, 213.071 663.934, 207.721 665.398 M 254.942 664.948 C 253.534 665.375, 251.397 666.252, 250.192 666.897 C 248.379 667.868, 248 667.805, 248 666.535 C 248 665.360, 246.831 665, 243.019 665 C 238.677 665, 237.970 665.289, 237.508 667.250 C 236.472 671.649, 232 694.289, 232 695.138 C 232 696.541, 242.009 696.170, 242.455 694.750 C 242.671 694.063, 243.602 689.947, 244.525 685.604 C 246.694 675.386, 249.215 672.539, 255.467 673.243 C 259.765 673.728, 259.785 673.715, 260.380 670.115 C 261.473 663.507, 261.041 663.097, 254.942 664.948 M 270.792 664.884 C 268.203 665.268, 265.900 665.789, 265.675 666.041 C 265.450 666.294, 264.953 668.227, 264.571 670.337 C 263.903 674.028, 263.965 674.142, 266.188 673.337 C 267.460 672.877, 271.417 672.500, 274.982 672.500 C 280.358 672.500, 281.522 672.798, 281.805 674.250 C 282.092 675.721, 281.379 676.001, 277.323 676.006 C 266.053 676.019, 259 680.623, 259 687.969 C 259 696.121, 267.811 699.852, 275.702 695.040 C 278.094 693.582, 278.762 693.456, 278.345 694.544 C 277.897 695.710, 278.881 696, 283.280 696 L 288.773 696 290.840 685.148 C 293.131 673.115, 292.769 669.626, 288.946 666.877 C 286.094 664.827, 277.522 663.886, 270.792 664.884 M 345.799 664.952 C 337.105 666.636, 331.081 673.639, 330.276 683 C 329.493 692.100, 336.226 697.586, 347.202 696.792 C 351.756 696.462, 353.762 695.737, 356.735 693.342 C 364.217 687.316, 367.061 677.887, 363.483 670.967 C 360.946 666.061, 353.374 663.485, 345.799 664.952 M 390.643 665.018 C 389.071 665.495, 386.874 666.698, 385.760 667.692 C 383.784 669.455, 383.751 669.445, 384.434 667.250 C 385.101 665.107, 384.877 665, 379.710 665 L 374.285 665 371.584 678.750 C 370.099 686.313, 368.655 693.288, 368.375 694.250 C 367.933 695.766, 368.599 696, 373.353 696 C 378.545 696, 378.870 695.852, 379.371 693.250 C 379.663 691.737, 380.384 688.014, 380.975 684.975 C 382.842 675.367, 387.432 670.402, 391.619 673.463 C 393.234 674.644, 393.233 675.215, 391.607 683.607 C 390.660 688.498, 389.655 693.288, 389.375 694.250 C 388.934 695.764, 389.596 696, 394.292 696 L 399.720 696 401.925 684.933 C 404.220 673.412, 404.052 669.235, 401.193 666.715 C 398.931 664.721, 394.155 663.953, 390.643 665.018 M 483.805 664.919 C 474.609 666.782, 467.240 676.564, 468.254 685.562 C 468.831 690.680, 471.035 693.656, 475.718 695.638 C 479.599 697.281, 487.526 697.400, 493.466 695.904 C 497.873 694.794, 498.954 693.326, 498.986 688.405 L 499 686.310 493.262 688.247 C 485.109 691, 479.070 689.729, 479.015 685.250 C 479.004 684.322, 481.958 684, 490.500 684 L 502 684 502.156 680.750 C 502.411 675.410, 501.950 672.625, 500.421 670.264 C 497.357 665.535, 490.944 663.472, 483.805 664.919 M 564 664.683 C 555.335 666.168, 549.014 671.521, 546.972 679.103 C 543.990 690.179, 549.998 697.007, 562.718 696.994 C 571.471 696.986, 575.860 695.470, 576.585 692.205 C 576.916 690.717, 577.421 688.644, 577.708 687.599 C 578.133 686.053, 577.881 685.848, 576.365 686.499 C 575.339 686.940, 572.018 687.984, 568.985 688.818 C 564.183 690.139, 563.086 690.151, 560.497 688.910 C 558.862 688.126, 557.373 686.701, 557.189 685.742 C 556.886 684.167, 557.960 684, 568.381 684 L 579.909 684 580.604 680.297 C 582.430 670.562, 574.302 662.918, 564 664.683 M 596.836 664.902 C 589.376 666.439, 585.300 671.200, 586.633 676.819 C 587.799 681.737, 590.310 683.450, 599.250 685.429 C 600.763 685.764, 602 686.696, 602 687.500 C 602 689.903, 596.986 690.454, 590.515 688.762 C 587.207 687.897, 584.428 687.259, 584.339 687.344 C 584.251 687.430, 583.869 689.154, 583.492 691.176 C 582.820 694.775, 582.886 694.875, 586.653 695.921 C 597.595 698.959, 609.466 695.671, 611.641 689 C 612.505 686.349, 612.493 684.773, 611.593 682.500 C 610.590 679.966, 609.282 679.128, 603.169 677.102 C 599.178 675.780, 596.094 674.210, 596.294 673.602 C 596.812 672.025, 605.761 671.658, 609.178 673.074 C 612.617 674.498, 612.919 674.275, 613.650 669.772 C 614.056 667.266, 613.809 666.141, 612.764 665.740 C 609.941 664.657, 600.450 664.158, 596.836 664.902 M 670 664.896 C 662.491 666.470, 660 669.203, 660 675.866 C 660 679.107, 660.532 680.243, 662.811 681.865 C 664.357 682.966, 666.945 684.164, 668.561 684.526 C 674.274 685.808, 675 686.149, 675 687.548 C 675 689.906, 669.937 690.441, 663.515 688.762 C 660.207 687.897, 657.447 687.259, 657.383 687.344 C 657.318 687.430, 656.964 689.166, 656.596 691.202 C 655.932 694.878, 655.956 694.911, 660.192 696.052 C 666.560 697.767, 677.327 696.889, 680.718 694.379 C 687.242 689.551, 687.364 681.975, 680.969 678.751 C 679.061 677.790, 675.558 676.527, 673.185 675.945 C 670.622 675.317, 669.030 674.403, 669.263 673.694 C 669.788 672.101, 678.439 671.609, 682.294 672.953 C 684.633 673.768, 685.558 673.723, 686.168 672.762 C 687.185 671.161, 687.241 666.261, 686.250 665.673 C 684.674 664.737, 673.342 664.195, 670 664.896 M 301.552 666.250 C 301.340 666.938, 300.896 668.737, 300.564 670.250 L 299.962 673 307.231 673.014 L 314.500 673.028 308.510 678.264 C 297.777 687.645, 296.151 689.454, 295.492 692.750 L 294.841 696 308.814 696 C 323.644 696, 324 695.882, 324 690.960 C 324 689.320, 323.066 689.047, 316.559 688.792 L 309.118 688.500 315.809 682.732 C 319.489 679.559, 323.673 675.924, 325.107 674.653 C 326.561 673.364, 328.017 670.720, 328.402 668.671 L 329.091 665 315.514 665 C 305.525 665, 301.835 665.330, 301.552 666.250 M 623 665.390 C 623 665.604, 622.100 670.154, 621 675.500 C 618.338 688.437, 618.411 691.502, 621.455 694.545 C 624.361 697.452, 629.887 697.829, 634.480 695.434 C 636.403 694.431, 637.585 694.256, 637.813 694.940 C 638.008 695.523, 640.508 696, 643.370 696 L 648.572 696 651.286 682.192 C 652.779 674.598, 654 667.623, 654 666.692 C 654 665.331, 653.035 665, 649.067 665 C 643.536 665, 643.889 664.494, 641.997 675.136 C 640.582 683.088, 637.993 687.713, 634.458 688.600 C 630.124 689.688, 629.423 687.954, 630.881 679.747 C 631.590 675.761, 632.415 670.813, 632.716 668.750 L 633.263 665 628.132 665 C 625.309 665, 623 665.175, 623 665.390 M 207.923 674.923 C 205.668 677.178, 205 678.759, 205 681.841 C 205 687.499, 205.814 689, 208.884 689 C 213.002 689, 215.632 686.518, 216.916 681.421 C 217.899 677.516, 217.836 676.399, 216.519 674.389 C 214.425 671.193, 211.469 671.377, 207.923 674.923 M 344.521 674.388 C 341.603 677.306, 340.327 683.228, 341.882 686.639 C 343.596 690.402, 348.694 689.605, 351.718 685.102 C 354.643 680.747, 354.823 674.511, 352.066 673.035 C 349.078 671.436, 347.122 671.787, 344.521 674.388 M 443.360 673.460 C 439.040 676.486, 437.573 686.093, 441.095 688.296 C 445.456 691.025, 450.920 685.742, 451.191 678.536 C 451.411 672.681, 447.808 670.345, 443.360 673.460 M 482 674.500 L 479.651 677 485.826 677 C 490.225 677, 492 676.626, 492 675.700 C 492 671.529, 485.522 670.751, 482 674.500 M 561.250 673.522 C 557.678 676.049, 558.586 677, 564.570 677 C 569.773 677, 570.118 676.852, 569.820 674.750 C 569.416 671.905, 564.527 671.205, 561.250 673.522 M 270.384 684.442 C 269.418 686.959, 270.451 689.490, 272.569 689.794 C 274.963 690.139, 280 686.501, 280 684.427 C 280 682.418, 271.156 682.431, 270.384 684.442 M 439 721.375 C 439 722.131, 438.719 724.156, 438.375 725.875 L 437.750 729 442.816 729 C 448.461 729, 448.468 728.994, 449.414 723.750 L 450.091 720 444.545 720 C 440.507 720, 439 720.374, 439 721.375 M 458.501 721.250 C 458.261 721.938, 456.328 731.500, 454.205 742.500 L 450.345 762.500 455.283 762.806 C 457.999 762.974, 460.370 762.964, 460.551 762.782 C 460.881 762.452, 469 722.008, 469 720.694 C 469 719.408, 458.959 719.939, 458.501 721.250 M 477.618 721.750 C 476.725 724.773, 470 759.817, 470 761.447 C 470 762.643, 471.145 763, 474.981 763 C 479.335 763, 480.023 762.717, 480.449 760.750 C 482.167 752.812, 488.007 722.278, 488.004 721.250 C 488.001 720.419, 486.345 720, 483.067 720 C 479.233 720, 478.020 720.390, 477.618 721.750 M 332.500 721.651 C 324.654 723.793, 320 728.894, 320 735.352 C 320 740.692, 323.958 744.452, 331.997 746.750 C 336.438 748.020, 338.600 749.159, 338.829 750.352 C 339.784 755.308, 331.426 757.294, 323.032 754.104 C 320.055 752.973, 317.505 752.162, 317.364 752.302 C 317.224 752.442, 316.682 754.458, 316.160 756.781 L 315.211 761.006 320.781 762.625 C 328.071 764.744, 338.514 764.083, 343.155 761.209 C 349.436 757.320, 351.686 750.160, 348.538 744.074 C 347.062 741.219, 343.294 739.233, 335.233 737.063 C 332.203 736.247, 331 735.400, 331 734.084 C 331 729.948, 336.588 728.481, 344.498 730.542 C 347.681 731.370, 350.483 731.850, 350.726 731.607 C 350.969 731.364, 351.406 729.395, 351.696 727.232 C 352.117 724.093, 351.868 723.163, 350.464 722.625 C 348.036 721.693, 334.946 720.984, 332.500 721.651 M 372.790 731.954 C 364.188 733.619, 356.983 742.119, 357.015 750.566 C 357.047 759.045, 362.649 764, 372.205 764 C 375.455 764, 380.066 763.509, 382.451 762.908 C 386.133 761.981, 386.878 761.359, 387.393 758.783 C 388.498 753.258, 388.419 753.208, 381.936 755.333 C 374.502 757.771, 368.700 756.906, 368.185 753.283 C 367.877 751.120, 368.144 751.060, 379.185 750.783 L 390.500 750.500 390.805 745.159 C 391.381 735.089, 384.113 729.762, 372.790 731.954 M 500.269 731.899 C 495.168 732.780, 495.039 732.894, 494.010 737.457 C 493.239 740.872, 493.314 741.029, 495.347 740.287 C 496.531 739.854, 500.417 739.500, 503.982 739.500 C 509.129 739.500, 510.528 739.830, 510.777 741.101 C 511.032 742.406, 509.775 742.813, 503.977 743.299 C 496.138 743.956, 491.207 746.220, 489.267 750.055 C 484.255 759.958, 494.873 768.033, 504.882 761.931 C 507.570 760.292, 508.141 760.190, 507.664 761.434 C 507.164 762.736, 507.972 763, 512.449 763 L 517.834 763 518.850 758.250 C 522.834 739.608, 522.714 736.788, 517.796 733.633 C 514.960 731.815, 505.931 730.921, 500.269 731.899 M 399.378 747.500 L 402.437 763 408.082 763 L 413.726 763 422.363 748.178 C 427.113 740.026, 431 733.028, 431 732.626 C 431 732.224, 428.700 732.031, 425.888 732.198 L 420.776 732.500 415.492 742.366 C 409.777 753.037, 409.975 753.033, 408.030 742.500 C 405.930 731.135, 406.498 732, 401.141 732 L 396.319 732 399.378 747.500 M 437 732.362 C 437 732.562, 435.932 738.074, 434.627 744.612 C 433.322 751.151, 431.983 757.962, 431.652 759.750 L 431.050 763 436.414 763 L 441.779 763 444.430 748.750 C 445.889 740.913, 447.274 733.938, 447.510 733.250 C 447.817 732.350, 446.405 732, 442.469 732 C 439.461 732, 437 732.163, 437 732.362 M 371.027 741.193 L 368.871 743.500 374.549 743.803 C 380.890 744.142, 381.917 743.683, 380.364 741.202 C 378.668 738.494, 373.555 738.489, 371.027 741.193 M 500.200 751.200 C 498.507 752.893, 498.710 755.675, 500.579 756.392 C 503.364 757.460, 507.026 755.850, 508.561 752.883 L 510.051 750 505.726 750 C 503.347 750, 500.860 750.540, 500.200 751.200"
     stroke="none"
     fill="#cd222d"
     fill-rule="evenodd"
     id="path171"
     style="fill:#ffffff" />
</svg>
